<svg width="512" height="512" viewBox="0 0 512 512" fill="none" xmlns="http://www.w3.org/2000/svg">
<path d="M348.574 306.303C348.574 306.303 322.447 274.238 316.068 266.504ZM348.574 306.303C348.574 306.303 328.762 282.046 316.068 266.504ZM348.574 306.303C350.566 308.692 351.346 309.265 351.88 305.89L396.105 127.275C397.32 121.575 396.383 122.958 391.42 125.347L169.333 231.662C163.932 234.239 162.501 234.554 169.058 234.554L231.192 234.542C231.192 234.542 237.093 234.623 236.841 234.692C224.166 248.188 177.048 300.932 132.963 334.396C86.6706 370.477 55.6722 383.009 32.9417 391.685C26.8781 393.8 25.0879 390.17 25.0879 385.625C25.0879 312.968 25.0886 199.574 25.0886 199.574C25.0885 138.216 75.5847 85.6852 137.509 85.6852C137.509 85.6852 356.013 85.6855 356.978 85.6855C359.871 85.6855 359.595 88.0074 358.631 89.1284C358.38 89.4176 336.422 114.881 336.422 114.881C335.516 115.89 334.896 116.445 336.588 115.757C336.588 115.757 475.565 50.8744 476.976 50.2943C481.247 48.5368 487.171 50.2954 486.62 57.5957C480.418 89.959 468.572 152.477 468.572 152.477C468.572 152.477 463.475 179.606 463.475 199.437C463.475 199.437 464.161 251.501 463.475 279.724C462.097 336.461 414.979 385.763 356.564 387.278H180.907C180.907 387.278 74.1348 458.338 70.0017 461.092C67.1085 463.296 60.6333 462.056 62.011 454.895C66.2814 437.224 74.9601 401.352 75.5112 399.259C76.2 396.642 78.4044 391.271 83.6396 390.583C178.835 368.331 236.526 329.43 312.684 266.504C314.522 264.984 314.387 264.463 316.068 266.504" fill="#A5A5A5"/>
</svg>
