<svg width="48" height="48" viewBox="0 0 48 48" fill="none" xmlns="http://www.w3.org/2000/svg">
<path d="M32.6784 28.7161C32.6784 28.7161 30.229 25.71 29.631 24.985ZM32.6784 28.7161C32.6784 28.7161 30.821 26.4421 29.631 24.985ZM32.6784 28.7161C32.8651 28.9401 32.9382 28.9939 32.9883 28.6774L37.1344 11.9323C37.2483 11.3979 37.1605 11.5276 36.6952 11.7516L15.8745 21.7186C15.3682 21.9601 15.234 21.9897 15.8487 21.9897L21.6738 21.9886C21.6738 21.9886 22.2271 21.9962 22.2034 22.0026C21.0151 23.2679 16.5978 28.2126 12.4649 31.3498C8.12494 34.7324 5.21884 35.9073 3.08785 36.7207C2.5194 36.919 2.35156 36.5787 2.35156 36.1526C2.35156 29.341 2.35162 18.7103 2.35162 18.7103C2.35162 12.958 7.08564 8.03324 12.8911 8.03324C12.8911 8.03324 33.3758 8.03326 33.4662 8.03326C33.7375 8.03326 33.7116 8.25093 33.6212 8.35603C33.5977 8.38314 31.5392 10.7703 31.5392 10.7703C31.4542 10.8649 31.3961 10.917 31.5547 10.8525C31.5547 10.8525 44.5838 4.76972 44.7161 4.71533C45.1165 4.55057 45.6719 4.71544 45.6202 5.39985C45.0387 8.4339 43.9282 14.2949 43.9282 14.2949C43.9282 14.2949 43.4503 16.8383 43.4503 18.6975C43.4503 18.6975 43.5146 23.5785 43.4503 26.2244C43.3211 31.5435 38.9039 36.1655 33.4275 36.3075H16.9596C16.9596 36.3075 6.94971 42.9694 6.56223 43.2276C6.291 43.4342 5.68394 43.318 5.81311 42.6467C6.21345 40.99 7.02708 37.627 7.07874 37.4308C7.14332 37.1855 7.34998 36.6819 7.84079 36.6174C16.7654 34.5313 22.1739 30.8843 29.3137 24.985C29.486 24.8425 29.4734 24.7937 29.631 24.985" fill="#A5A5A5"/>
</svg>
