<svg width="24" height="24" viewBox="0 0 24 24" fill="none" xmlns="http://www.w3.org/2000/svg">
<path d="M16.3392 14.3581C16.3392 14.3581 15.1145 12.855 14.8155 12.4925ZM16.3392 14.3581C16.3392 14.3581 15.4105 13.221 14.8155 12.4925ZM16.3392 14.3581C16.4326 14.4701 16.4691 14.4969 16.4942 14.3387L18.5672 5.96615C18.6241 5.69894 18.5802 5.76379 18.3476 5.87578L7.93727 10.8593C7.68412 10.9801 7.61702 10.9948 7.92436 10.9948L10.8369 10.9943C10.8369 10.9943 11.1135 10.9981 11.1017 11.0013C10.5076 11.6339 8.29892 14.1063 6.23243 15.6749C4.06247 17.3662 2.60942 17.9536 1.54393 18.3603C1.2597 18.4595 1.17578 18.2893 1.17578 18.0763C1.17578 14.6705 1.17581 9.35517 1.17581 9.35517C1.17581 6.47899 3.54282 4.01662 6.44554 4.01662C6.44554 4.01662 16.6879 4.01663 16.7331 4.01663C16.8687 4.01663 16.8558 4.12547 16.8106 4.17801C16.7989 4.19157 15.7696 5.38517 15.7696 5.38517C15.7271 5.43246 15.698 5.4585 15.7773 5.42625C15.7773 5.42625 22.2919 2.38486 22.358 2.35767C22.5582 2.27529 22.8359 2.35772 22.8101 2.69992C22.5194 4.21695 21.9641 7.14746 21.9641 7.14746C21.9641 7.14746 21.7252 8.41917 21.7252 9.34874C21.7252 9.34874 21.7573 11.7892 21.7252 13.1122C21.6606 15.7717 19.4519 18.0828 16.7137 18.1538H8.47982C8.47982 18.1538 3.47486 21.4847 3.28112 21.6138C3.1455 21.7171 2.84197 21.659 2.90655 21.3233C3.10672 20.495 3.51354 18.8135 3.53937 18.7154C3.57166 18.5927 3.67499 18.341 3.92039 18.3087C8.3827 17.2656 11.0869 15.4421 14.6569 12.4925C14.743 12.4213 14.7367 12.3968 14.8155 12.4925" fill="#A5A5A5"/>
</svg>
